<?xml version="1.0" encoding="UTF-8" standalone="no"?><svg xmlns="http://www.w3.org/2000/svg" xmlns:xlink="http://www.w3.org/1999/xlink" contentScriptType="application/ecmascript" contentStyleType="text/css" height="490px" preserveAspectRatio="none" style="width:2014px;height:490px;" version="1.1" viewBox="0 0 2014 490" width="2014px" zoomAndPan="magnify"><defs><filter height="300%" id="f38mzb6swq80n" width="300%" x="-1" y="-1"><feGaussianBlur result="blurOut" stdDeviation="2.0"/><feColorMatrix in="blurOut" result="blurOut2" type="matrix" values="0 0 0 0 0 0 0 0 0 0 0 0 0 0 0 0 0 0 .4 0"/><feOffset dx="4.0" dy="4.0" in="blurOut2" result="blurOut3"/><feBlend in="SourceGraphic" in2="blurOut3" mode="normal"/></filter><linearGradient id="g38mzb6swq80n0" x1="0%" x2="100%" y1="0%" y2="100%"><stop offset="0%" stop-color="#FFFFFF"/><stop offset="100%" stop-color="#00FFFF"/></linearGradient><linearGradient id="g38mzb6swq80n1" x1="0%" x2="100%" y1="50%" y2="50%"><stop offset="0%" stop-color="#FAEBD7"/><stop offset="100%" stop-color="#FFC0CB"/></linearGradient></defs><g><!--MD5=[eef0253727b8a6451033362b0c754e90]
cluster Template--><polygon fill="#6495ED" filter="url(#f38mzb6swq80n)" points="164.5,16,243.5,16,250.5,38.2969,1868.5,38.2969,1868.5,99,164.5,99,164.5,16" style="stroke: #000000; stroke-width: 1.5;"/><line style="stroke: #000000; stroke-width: 1.5;" x1="164.5" x2="250.5" y1="38.2969" y2="38.2969"/><text fill="#000000" font-family="sans-serif" font-size="14" font-weight="bold" lengthAdjust="spacingAndGlyphs" textLength="73" x="168.5" y="30.9951">Template</text><!--MD5=[fb8091b0fe9d4fc7d1009b6af201b0dc]
cluster Specification--><polygon fill="#FFD700" filter="url(#f38mzb6swq80n)" points="185.5,146,292.5,146,299.5,168.2969,474.5,168.2969,474.5,229,185.5,229,185.5,146" style="stroke: #000000; stroke-width: 1.5;"/><line style="stroke: #000000; stroke-width: 1.5;" x1="185.5" x2="299.5" y1="168.2969" y2="168.2969"/><text fill="#000000" font-family="sans-serif" font-size="14" font-weight="bold" lengthAdjust="spacingAndGlyphs" textLength="101" x="189.5" y="160.9951">Specification</text><!--MD5=[043a70447eb57d5b8b83158f996ed430]
cluster Glossary--><polygon fill="#FFC0CB" filter="url(#f38mzb6swq80n)" points="555.5,146,630.5,146,637.5,168.2969,703.5,168.2969,703.5,229,555.5,229,555.5,146" style="stroke: #000000; stroke-width: 1.5;"/><line style="stroke: #000000; stroke-width: 1.5;" x1="555.5" x2="637.5" y1="168.2969" y2="168.2969"/><text fill="#000000" font-family="sans-serif" font-size="14" font-weight="bold" lengthAdjust="spacingAndGlyphs" textLength="69" x="559.5" y="160.9951">Glossary</text><!--MD5=[e729c75485ad55fb8a6f0f88ffd91255]
cluster Recomendation--><polygon fill="#FF00FF" filter="url(#f38mzb6swq80n)" points="813.5,146,941.5,146,948.5,168.2969,1189.5,168.2969,1189.5,229,813.5,229,813.5,146" style="stroke: #000000; stroke-width: 1.5;"/><line style="stroke: #000000; stroke-width: 1.5;" x1="813.5" x2="948.5" y1="168.2969" y2="168.2969"/><text fill="#000000" font-family="sans-serif" font-size="14" font-weight="bold" lengthAdjust="spacingAndGlyphs" textLength="122" x="817.5" y="160.9951">Recomendation</text><!--MD5=[61771dbf46ad0e3b8927049f319f0d2c]
cluster Guide--><polygon fill="#ADFF2F" filter="url(#f38mzb6swq80n)" points="1300.5,146,1352.5,146,1359.5,168.2969,1652.5,168.2969,1652.5,229,1300.5,229,1300.5,146" style="stroke: #000000; stroke-width: 1.5;"/><line style="stroke: #000000; stroke-width: 1.5;" x1="1300.5" x2="1359.5" y1="168.2969" y2="168.2969"/><text fill="#000000" font-family="sans-serif" font-size="14" font-weight="bold" lengthAdjust="spacingAndGlyphs" textLength="46" x="1304.5" y="160.9951">Guide</text><!--MD5=[dfd25b59b24d8cdf55ed622d4206aa9e]
cluster WhitePaper--><polygon fill="#F5DEB3" filter="url(#f38mzb6swq80n)" points="1705.5,146,1802.5,146,1809.5,168.2969,1867.5,168.2969,1867.5,229,1705.5,229,1705.5,146" style="stroke: #000000; stroke-width: 1.5;"/><line style="stroke: #000000; stroke-width: 1.5;" x1="1705.5" x2="1809.5" y1="168.2969" y2="168.2969"/><text fill="#000000" font-family="sans-serif" font-size="14" font-weight="bold" lengthAdjust="spacingAndGlyphs" textLength="91" x="1709.5" y="160.9951">WhitePaper</text><!--MD5=[6f3840894a89accff6ebcf39d8b0b99b]
class ProtocolSpecOutline--><rect fill="url(#g38mzb6swq80n0)" filter="url(#f38mzb6swq80n)" height="48" id="ProtocolSpecOutline" style="stroke: #A80036; stroke-width: 1.5;" width="159" x="172" y="43"/><rect fill="url(#g38mzb6swq80n0)" height="32" style="stroke: #A80036; stroke-width: 1.5;" width="159" x="172" y="43"/><ellipse cx="187" cy="59" fill="#ADD1B2" rx="11" ry="11" style="stroke: #A80036; stroke-width: 1.0;"/><path d="M189.9688,64.6406 Q189.3906,64.9375 188.75,65.0859 Q188.1094,65.2344 187.4063,65.2344 Q184.9063,65.2344 183.5859,63.5859 Q182.2656,61.9375 182.2656,58.8125 Q182.2656,55.6875 183.5859,54.0313 Q184.9063,52.375 187.4063,52.375 Q188.1094,52.375 188.7578,52.5313 Q189.4063,52.6875 189.9688,52.9844 L189.9688,55.7031 Q189.3438,55.125 188.75,54.8516 Q188.1563,54.5781 187.5313,54.5781 Q186.1875,54.5781 185.5,55.6484 Q184.8125,56.7188 184.8125,58.8125 Q184.8125,60.9063 185.5,61.9766 Q186.1875,63.0469 187.5313,63.0469 Q188.1563,63.0469 188.75,62.7734 Q189.3438,62.5 189.9688,61.9219 L189.9688,64.6406 Z "/><text fill="#000000" font-family="sans-serif" font-size="12" lengthAdjust="spacingAndGlyphs" textLength="127" x="201" y="63.1543">ProtocolSpecOutline</text><line style="stroke: #A80036; stroke-width: 1.5;" x1="173" x2="330" y1="75" y2="75"/><line style="stroke: #A80036; stroke-width: 1.5;" x1="173" x2="330" y1="83" y2="83"/><!--MD5=[42681a7801abe8aa9f51a7a71dc9f5f4]
class TechnicalSpecOutline--><rect fill="url(#g38mzb6swq80n0)" filter="url(#f38mzb6swq80n)" height="48" id="TechnicalSpecOutline" style="stroke: #A80036; stroke-width: 1.5;" width="166" x="366.5" y="43"/><rect fill="url(#g38mzb6swq80n0)" height="32" style="stroke: #A80036; stroke-width: 1.5;" width="166" x="366.5" y="43"/><ellipse cx="381.5" cy="59" fill="#ADD1B2" rx="11" ry="11" style="stroke: #A80036; stroke-width: 1.0;"/><path d="M384.4688,64.6406 Q383.8906,64.9375 383.25,65.0859 Q382.6094,65.2344 381.9063,65.2344 Q379.4063,65.2344 378.0859,63.5859 Q376.7656,61.9375 376.7656,58.8125 Q376.7656,55.6875 378.0859,54.0313 Q379.4063,52.375 381.9063,52.375 Q382.6094,52.375 383.2578,52.5313 Q383.9063,52.6875 384.4688,52.9844 L384.4688,55.7031 Q383.8438,55.125 383.25,54.8516 Q382.6563,54.5781 382.0313,54.5781 Q380.6875,54.5781 380,55.6484 Q379.3125,56.7188 379.3125,58.8125 Q379.3125,60.9063 380,61.9766 Q380.6875,63.0469 382.0313,63.0469 Q382.6563,63.0469 383.25,62.7734 Q383.8438,62.5 384.4688,61.9219 L384.4688,64.6406 Z "/><text fill="#000000" font-family="sans-serif" font-size="12" lengthAdjust="spacingAndGlyphs" textLength="134" x="395.5" y="63.1543">TechnicalSpecOutline</text><line style="stroke: #A80036; stroke-width: 1.5;" x1="367.5" x2="531.5" y1="75" y2="75"/><line style="stroke: #A80036; stroke-width: 1.5;" x1="367.5" x2="531.5" y1="83" y2="83"/><!--MD5=[1981cde1b2d62294243d02e6fdfe3c76]
class GlossayOutline--><rect fill="url(#g38mzb6swq80n0)" filter="url(#f38mzb6swq80n)" height="48" id="GlossayOutline" style="stroke: #A80036; stroke-width: 1.5;" width="124" x="567.5" y="43"/><rect fill="url(#g38mzb6swq80n0)" height="32" style="stroke: #A80036; stroke-width: 1.5;" width="124" x="567.5" y="43"/><ellipse cx="582.5" cy="59" fill="#ADD1B2" rx="11" ry="11" style="stroke: #A80036; stroke-width: 1.0;"/><path d="M585.4688,64.6406 Q584.8906,64.9375 584.25,65.0859 Q583.6094,65.2344 582.9063,65.2344 Q580.4063,65.2344 579.0859,63.5859 Q577.7656,61.9375 577.7656,58.8125 Q577.7656,55.6875 579.0859,54.0313 Q580.4063,52.375 582.9063,52.375 Q583.6094,52.375 584.2578,52.5313 Q584.9063,52.6875 585.4688,52.9844 L585.4688,55.7031 Q584.8438,55.125 584.25,54.8516 Q583.6563,54.5781 583.0313,54.5781 Q581.6875,54.5781 581,55.6484 Q580.3125,56.7188 580.3125,58.8125 Q580.3125,60.9063 581,61.9766 Q581.6875,63.0469 583.0313,63.0469 Q583.6563,63.0469 584.25,62.7734 Q584.8438,62.5 585.4688,61.9219 L585.4688,64.6406 Z "/><text fill="#000000" font-family="sans-serif" font-size="12" lengthAdjust="spacingAndGlyphs" textLength="92" x="596.5" y="63.1543">GlossayOutline</text><line style="stroke: #A80036; stroke-width: 1.5;" x1="568.5" x2="690.5" y1="75" y2="75"/><line style="stroke: #A80036; stroke-width: 1.5;" x1="568.5" x2="690.5" y1="83" y2="83"/><!--MD5=[91fc1b7ee9bdb7f2d93e71de67525da0]
class TIPOutline--><rect fill="url(#g38mzb6swq80n0)" filter="url(#f38mzb6swq80n)" height="48" id="TIPOutline" style="stroke: #A80036; stroke-width: 1.5;" width="94" x="726.5" y="43"/><rect fill="url(#g38mzb6swq80n0)" height="32" style="stroke: #A80036; stroke-width: 1.5;" width="94" x="726.5" y="43"/><ellipse cx="741.5" cy="59" fill="#ADD1B2" rx="11" ry="11" style="stroke: #A80036; stroke-width: 1.0;"/><path d="M744.4688,64.6406 Q743.8906,64.9375 743.25,65.0859 Q742.6094,65.2344 741.9063,65.2344 Q739.4063,65.2344 738.0859,63.5859 Q736.7656,61.9375 736.7656,58.8125 Q736.7656,55.6875 738.0859,54.0313 Q739.4063,52.375 741.9063,52.375 Q742.6094,52.375 743.2578,52.5313 Q743.9063,52.6875 744.4688,52.9844 L744.4688,55.7031 Q743.8438,55.125 743.25,54.8516 Q742.6563,54.5781 742.0313,54.5781 Q740.6875,54.5781 740,55.6484 Q739.3125,56.7188 739.3125,58.8125 Q739.3125,60.9063 740,61.9766 Q740.6875,63.0469 742.0313,63.0469 Q742.6563,63.0469 743.25,62.7734 Q743.8438,62.5 744.4688,61.9219 L744.4688,64.6406 Z "/><text fill="#000000" font-family="sans-serif" font-size="12" lengthAdjust="spacingAndGlyphs" textLength="62" x="755.5" y="63.1543">TIPOutline</text><line style="stroke: #A80036; stroke-width: 1.5;" x1="727.5" x2="819.5" y1="75" y2="75"/><line style="stroke: #A80036; stroke-width: 1.5;" x1="727.5" x2="819.5" y1="83" y2="83"/><!--MD5=[171c412ba5005650f73cf8d2522e68d9]
class BestPracticeOutline--><rect fill="url(#g38mzb6swq80n0)" filter="url(#f38mzb6swq80n)" height="48" id="BestPracticeOutline" style="stroke: #A80036; stroke-width: 1.5;" width="155" x="856" y="43"/><rect fill="url(#g38mzb6swq80n0)" height="32" style="stroke: #A80036; stroke-width: 1.5;" width="155" x="856" y="43"/><ellipse cx="871" cy="59" fill="#ADD1B2" rx="11" ry="11" style="stroke: #A80036; stroke-width: 1.0;"/><path d="M873.9688,64.6406 Q873.3906,64.9375 872.75,65.0859 Q872.1094,65.2344 871.4063,65.2344 Q868.9063,65.2344 867.5859,63.5859 Q866.2656,61.9375 866.2656,58.8125 Q866.2656,55.6875 867.5859,54.0313 Q868.9063,52.375 871.4063,52.375 Q872.1094,52.375 872.7578,52.5313 Q873.4063,52.6875 873.9688,52.9844 L873.9688,55.7031 Q873.3438,55.125 872.75,54.8516 Q872.1563,54.5781 871.5313,54.5781 Q870.1875,54.5781 869.5,55.6484 Q868.8125,56.7188 868.8125,58.8125 Q868.8125,60.9063 869.5,61.9766 Q870.1875,63.0469 871.5313,63.0469 Q872.1563,63.0469 872.75,62.7734 Q873.3438,62.5 873.9688,61.9219 L873.9688,64.6406 Z "/><text fill="#000000" font-family="sans-serif" font-size="12" lengthAdjust="spacingAndGlyphs" textLength="123" x="885" y="63.1543">BestPracticeOutline</text><line style="stroke: #A80036; stroke-width: 1.5;" x1="857" x2="1010" y1="75" y2="75"/><line style="stroke: #A80036; stroke-width: 1.5;" x1="857" x2="1010" y1="83" y2="83"/><!--MD5=[cf25e5ea12c10bd6a6c6f36e6a6cac3a]
class DesignPrincipleOutline--><rect fill="url(#g38mzb6swq80n0)" filter="url(#f38mzb6swq80n)" height="48" id="DesignPrincipleOutline" style="stroke: #A80036; stroke-width: 1.5;" width="172" x="1046.5" y="43"/><rect fill="url(#g38mzb6swq80n0)" height="32" style="stroke: #A80036; stroke-width: 1.5;" width="172" x="1046.5" y="43"/><ellipse cx="1061.5" cy="59" fill="#ADD1B2" rx="11" ry="11" style="stroke: #A80036; stroke-width: 1.0;"/><path d="M1064.4688,64.6406 Q1063.8906,64.9375 1063.25,65.0859 Q1062.6094,65.2344 1061.9063,65.2344 Q1059.4063,65.2344 1058.0859,63.5859 Q1056.7656,61.9375 1056.7656,58.8125 Q1056.7656,55.6875 1058.0859,54.0313 Q1059.4063,52.375 1061.9063,52.375 Q1062.6094,52.375 1063.2578,52.5313 Q1063.9063,52.6875 1064.4688,52.9844 L1064.4688,55.7031 Q1063.8438,55.125 1063.25,54.8516 Q1062.6563,54.5781 1062.0313,54.5781 Q1060.6875,54.5781 1060,55.6484 Q1059.3125,56.7188 1059.3125,58.8125 Q1059.3125,60.9063 1060,61.9766 Q1060.6875,63.0469 1062.0313,63.0469 Q1062.6563,63.0469 1063.25,62.7734 Q1063.8438,62.5 1064.4688,61.9219 L1064.4688,64.6406 Z "/><text fill="#000000" font-family="sans-serif" font-size="12" lengthAdjust="spacingAndGlyphs" textLength="140" x="1075.5" y="63.1543">DesignPrincipleOutline</text><line style="stroke: #A80036; stroke-width: 1.5;" x1="1047.5" x2="1217.5" y1="75" y2="75"/><line style="stroke: #A80036; stroke-width: 1.5;" x1="1047.5" x2="1217.5" y1="83" y2="83"/><!--MD5=[97ac982512876d5fdff9109527685e7d]
class GoveranceGuideOutline--><rect fill="url(#g38mzb6swq80n0)" filter="url(#f38mzb6swq80n)" height="48" id="GoveranceGuideOutline" style="stroke: #A80036; stroke-width: 1.5;" width="179" x="1254" y="43"/><rect fill="url(#g38mzb6swq80n0)" height="32" style="stroke: #A80036; stroke-width: 1.5;" width="179" x="1254" y="43"/><ellipse cx="1269" cy="59" fill="#ADD1B2" rx="11" ry="11" style="stroke: #A80036; stroke-width: 1.0;"/><path d="M1271.9688,64.6406 Q1271.3906,64.9375 1270.75,65.0859 Q1270.1094,65.2344 1269.4063,65.2344 Q1266.9063,65.2344 1265.5859,63.5859 Q1264.2656,61.9375 1264.2656,58.8125 Q1264.2656,55.6875 1265.5859,54.0313 Q1266.9063,52.375 1269.4063,52.375 Q1270.1094,52.375 1270.7578,52.5313 Q1271.4063,52.6875 1271.9688,52.9844 L1271.9688,55.7031 Q1271.3438,55.125 1270.75,54.8516 Q1270.1563,54.5781 1269.5313,54.5781 Q1268.1875,54.5781 1267.5,55.6484 Q1266.8125,56.7188 1266.8125,58.8125 Q1266.8125,60.9063 1267.5,61.9766 Q1268.1875,63.0469 1269.5313,63.0469 Q1270.1563,63.0469 1270.75,62.7734 Q1271.3438,62.5 1271.9688,61.9219 L1271.9688,64.6406 Z "/><text fill="#000000" font-family="sans-serif" font-size="12" lengthAdjust="spacingAndGlyphs" textLength="147" x="1283" y="63.1543">GoveranceGuideOutline</text><line style="stroke: #A80036; stroke-width: 1.5;" x1="1255" x2="1432" y1="75" y2="75"/><line style="stroke: #A80036; stroke-width: 1.5;" x1="1255" x2="1432" y1="83" y2="83"/><!--MD5=[ca0626936816ae1a46ecf48925c28340]
class ImplementationGuideOutline--><rect fill="url(#g38mzb6swq80n0)" filter="url(#f38mzb6swq80n)" height="48" id="ImplementationGuideOutline" style="stroke: #A80036; stroke-width: 1.5;" width="209" x="1468" y="43"/><rect fill="url(#g38mzb6swq80n0)" height="32" style="stroke: #A80036; stroke-width: 1.5;" width="209" x="1468" y="43"/><ellipse cx="1483" cy="59" fill="#ADD1B2" rx="11" ry="11" style="stroke: #A80036; stroke-width: 1.0;"/><path d="M1485.9688,64.6406 Q1485.3906,64.9375 1484.75,65.0859 Q1484.1094,65.2344 1483.4063,65.2344 Q1480.9063,65.2344 1479.5859,63.5859 Q1478.2656,61.9375 1478.2656,58.8125 Q1478.2656,55.6875 1479.5859,54.0313 Q1480.9063,52.375 1483.4063,52.375 Q1484.1094,52.375 1484.7578,52.5313 Q1485.4063,52.6875 1485.9688,52.9844 L1485.9688,55.7031 Q1485.3438,55.125 1484.75,54.8516 Q1484.1563,54.5781 1483.5313,54.5781 Q1482.1875,54.5781 1481.5,55.6484 Q1480.8125,56.7188 1480.8125,58.8125 Q1480.8125,60.9063 1481.5,61.9766 Q1482.1875,63.0469 1483.5313,63.0469 Q1484.1563,63.0469 1484.75,62.7734 Q1485.3438,62.5 1485.9688,61.9219 L1485.9688,64.6406 Z "/><text fill="#000000" font-family="sans-serif" font-size="12" lengthAdjust="spacingAndGlyphs" textLength="177" x="1497" y="63.1543">ImplementationGuideOutline</text><line style="stroke: #A80036; stroke-width: 1.5;" x1="1469" x2="1676" y1="75" y2="75"/><line style="stroke: #A80036; stroke-width: 1.5;" x1="1469" x2="1676" y1="83" y2="83"/><!--MD5=[18b64a7879bda91710e9116de76ce055]
class WhitePaperOutline--><rect fill="url(#g38mzb6swq80n0)" filter="url(#f38mzb6swq80n)" height="48" id="WhitePaperOutline" style="stroke: #A80036; stroke-width: 1.5;" width="148" x="1712.5" y="43"/><rect fill="url(#g38mzb6swq80n0)" height="32" style="stroke: #A80036; stroke-width: 1.5;" width="148" x="1712.5" y="43"/><ellipse cx="1727.5" cy="59" fill="#ADD1B2" rx="11" ry="11" style="stroke: #A80036; stroke-width: 1.0;"/><path d="M1730.4688,64.6406 Q1729.8906,64.9375 1729.25,65.0859 Q1728.6094,65.2344 1727.9063,65.2344 Q1725.4063,65.2344 1724.0859,63.5859 Q1722.7656,61.9375 1722.7656,58.8125 Q1722.7656,55.6875 1724.0859,54.0313 Q1725.4063,52.375 1727.9063,52.375 Q1728.6094,52.375 1729.2578,52.5313 Q1729.9063,52.6875 1730.4688,52.9844 L1730.4688,55.7031 Q1729.8438,55.125 1729.25,54.8516 Q1728.6563,54.5781 1728.0313,54.5781 Q1726.6875,54.5781 1726,55.6484 Q1725.3125,56.7188 1725.3125,58.8125 Q1725.3125,60.9063 1726,61.9766 Q1726.6875,63.0469 1728.0313,63.0469 Q1728.6563,63.0469 1729.25,62.7734 Q1729.8438,62.5 1730.4688,61.9219 L1730.4688,64.6406 Z "/><text fill="#000000" font-family="sans-serif" font-size="12" lengthAdjust="spacingAndGlyphs" textLength="116" x="1741.5" y="63.1543">WhitePaperOutline</text><line style="stroke: #A80036; stroke-width: 1.5;" x1="1713.5" x2="1859.5" y1="75" y2="75"/><line style="stroke: #A80036; stroke-width: 1.5;" x1="1713.5" x2="1859.5" y1="83" y2="83"/><!--MD5=[dd9b335351b4b548ad463eb35611f89a]
class ProtocolSpec--><rect fill="#FAEBD7" filter="url(#f38mzb6swq80n)" height="48" id="ProtocolSpec" style="stroke: #A80036; stroke-width: 1.5;" width="115" x="194" y="173"/><rect fill="#FAEBD7" height="32" style="stroke: #A80036; stroke-width: 1.5;" width="115" x="194" y="173"/><ellipse cx="209" cy="189" fill="#ADD1B2" rx="11" ry="11" style="stroke: #A80036; stroke-width: 1.0;"/><path d="M211.9688,194.6406 Q211.3906,194.9375 210.75,195.0859 Q210.1094,195.2344 209.4063,195.2344 Q206.9063,195.2344 205.5859,193.5859 Q204.2656,191.9375 204.2656,188.8125 Q204.2656,185.6875 205.5859,184.0313 Q206.9063,182.375 209.4063,182.375 Q210.1094,182.375 210.7578,182.5313 Q211.4063,182.6875 211.9688,182.9844 L211.9688,185.7031 Q211.3438,185.125 210.75,184.8516 Q210.1563,184.5781 209.5313,184.5781 Q208.1875,184.5781 207.5,185.6484 Q206.8125,186.7188 206.8125,188.8125 Q206.8125,190.9063 207.5,191.9766 Q208.1875,193.0469 209.5313,193.0469 Q210.1563,193.0469 210.75,192.7734 Q211.3438,192.5 211.9688,191.9219 L211.9688,194.6406 Z "/><text fill="#000000" font-family="sans-serif" font-size="12" lengthAdjust="spacingAndGlyphs" textLength="83" x="223" y="193.1543">ProtocolSpec</text><line style="stroke: #A80036; stroke-width: 1.5;" x1="195" x2="308" y1="205" y2="205"/><line style="stroke: #A80036; stroke-width: 1.5;" x1="195" x2="308" y1="213" y2="213"/><!--MD5=[6be2b002e062174f1997cafb69d67f33]
class TechnicalSpec--><rect fill="#FAEBD7" filter="url(#f38mzb6swq80n)" height="48" id="TechnicalSpec" style="stroke: #A80036; stroke-width: 1.5;" width="122" x="344.5" y="173"/><rect fill="#FAEBD7" height="32" style="stroke: #A80036; stroke-width: 1.5;" width="122" x="344.5" y="173"/><ellipse cx="359.5" cy="189" fill="#ADD1B2" rx="11" ry="11" style="stroke: #A80036; stroke-width: 1.0;"/><path d="M362.4688,194.6406 Q361.8906,194.9375 361.25,195.0859 Q360.6094,195.2344 359.9063,195.2344 Q357.4063,195.2344 356.0859,193.5859 Q354.7656,191.9375 354.7656,188.8125 Q354.7656,185.6875 356.0859,184.0313 Q357.4063,182.375 359.9063,182.375 Q360.6094,182.375 361.2578,182.5313 Q361.9063,182.6875 362.4688,182.9844 L362.4688,185.7031 Q361.8438,185.125 361.25,184.8516 Q360.6563,184.5781 360.0313,184.5781 Q358.6875,184.5781 358,185.6484 Q357.3125,186.7188 357.3125,188.8125 Q357.3125,190.9063 358,191.9766 Q358.6875,193.0469 360.0313,193.0469 Q360.6563,193.0469 361.25,192.7734 Q361.8438,192.5 362.4688,191.9219 L362.4688,194.6406 Z "/><text fill="#000000" font-family="sans-serif" font-size="12" lengthAdjust="spacingAndGlyphs" textLength="90" x="373.5" y="193.1543">TechnicalSpec</text><line style="stroke: #A80036; stroke-width: 1.5;" x1="345.5" x2="465.5" y1="205" y2="205"/><line style="stroke: #A80036; stroke-width: 1.5;" x1="345.5" x2="465.5" y1="213" y2="213"/><!--MD5=[b0270de260af53447300b7fe3e2e9333]
class DomainGlossary--><rect fill="#FAEBD7" filter="url(#f38mzb6swq80n)" height="48" id="DomainGlossary" style="stroke: #A80036; stroke-width: 1.5;" width="132" x="563.5" y="173"/><rect fill="#FAEBD7" height="32" style="stroke: #A80036; stroke-width: 1.5;" width="132" x="563.5" y="173"/><ellipse cx="578.5" cy="189" fill="#ADD1B2" rx="11" ry="11" style="stroke: #A80036; stroke-width: 1.0;"/><path d="M581.4688,194.6406 Q580.8906,194.9375 580.25,195.0859 Q579.6094,195.2344 578.9063,195.2344 Q576.4063,195.2344 575.0859,193.5859 Q573.7656,191.9375 573.7656,188.8125 Q573.7656,185.6875 575.0859,184.0313 Q576.4063,182.375 578.9063,182.375 Q579.6094,182.375 580.2578,182.5313 Q580.9063,182.6875 581.4688,182.9844 L581.4688,185.7031 Q580.8438,185.125 580.25,184.8516 Q579.6563,184.5781 579.0313,184.5781 Q577.6875,184.5781 577,185.6484 Q576.3125,186.7188 576.3125,188.8125 Q576.3125,190.9063 577,191.9766 Q577.6875,193.0469 579.0313,193.0469 Q579.6563,193.0469 580.25,192.7734 Q580.8438,192.5 581.4688,191.9219 L581.4688,194.6406 Z "/><text fill="#000000" font-family="sans-serif" font-size="12" lengthAdjust="spacingAndGlyphs" textLength="100" x="592.5" y="193.1543">DomainGlossary</text><line style="stroke: #A80036; stroke-width: 1.5;" x1="564.5" x2="694.5" y1="205" y2="205"/><line style="stroke: #A80036; stroke-width: 1.5;" x1="564.5" x2="694.5" y1="213" y2="213"/><!--MD5=[146359399e9b2c89dafbee20f6ebfaaa]
class TIP--><rect fill="url(#g38mzb6swq80n1)" filter="url(#f38mzb6swq80n)" height="48" id="TIP" style="stroke: #A80036; stroke-width: 1.5;" width="50" x="821.5" y="173"/><rect fill="url(#g38mzb6swq80n1)" height="32" style="stroke: #A80036; stroke-width: 1.5;" width="50" x="821.5" y="173"/><ellipse cx="836.5" cy="189" fill="#ADD1B2" rx="11" ry="11" style="stroke: #A80036; stroke-width: 1.0;"/><path d="M839.4688,194.6406 Q838.8906,194.9375 838.25,195.0859 Q837.6094,195.2344 836.9063,195.2344 Q834.4063,195.2344 833.0859,193.5859 Q831.7656,191.9375 831.7656,188.8125 Q831.7656,185.6875 833.0859,184.0313 Q834.4063,182.375 836.9063,182.375 Q837.6094,182.375 838.2578,182.5313 Q838.9063,182.6875 839.4688,182.9844 L839.4688,185.7031 Q838.8438,185.125 838.25,184.8516 Q837.6563,184.5781 837.0313,184.5781 Q835.6875,184.5781 835,185.6484 Q834.3125,186.7188 834.3125,188.8125 Q834.3125,190.9063 835,191.9766 Q835.6875,193.0469 837.0313,193.0469 Q837.6563,193.0469 838.25,192.7734 Q838.8438,192.5 839.4688,191.9219 L839.4688,194.6406 Z "/><text fill="#000000" font-family="sans-serif" font-size="12" lengthAdjust="spacingAndGlyphs" textLength="18" x="850.5" y="193.1543">TIP</text><line style="stroke: #A80036; stroke-width: 1.5;" x1="822.5" x2="870.5" y1="205" y2="205"/><line style="stroke: #A80036; stroke-width: 1.5;" x1="822.5" x2="870.5" y1="213" y2="213"/><!--MD5=[33fb3f65f4ffe4437f93247397f8c3d5]
class DesignPrinciple--><rect fill="url(#g38mzb6swq80n1)" filter="url(#f38mzb6swq80n)" height="48" id="DesignPrinciple" style="stroke: #A80036; stroke-width: 1.5;" width="128" x="1053.5" y="173"/><rect fill="url(#g38mzb6swq80n1)" height="32" style="stroke: #A80036; stroke-width: 1.5;" width="128" x="1053.5" y="173"/><ellipse cx="1068.5" cy="189" fill="#ADD1B2" rx="11" ry="11" style="stroke: #A80036; stroke-width: 1.0;"/><path d="M1071.4688,194.6406 Q1070.8906,194.9375 1070.25,195.0859 Q1069.6094,195.2344 1068.9063,195.2344 Q1066.4063,195.2344 1065.0859,193.5859 Q1063.7656,191.9375 1063.7656,188.8125 Q1063.7656,185.6875 1065.0859,184.0313 Q1066.4063,182.375 1068.9063,182.375 Q1069.6094,182.375 1070.2578,182.5313 Q1070.9063,182.6875 1071.4688,182.9844 L1071.4688,185.7031 Q1070.8438,185.125 1070.25,184.8516 Q1069.6563,184.5781 1069.0313,184.5781 Q1067.6875,184.5781 1067,185.6484 Q1066.3125,186.7188 1066.3125,188.8125 Q1066.3125,190.9063 1067,191.9766 Q1067.6875,193.0469 1069.0313,193.0469 Q1069.6563,193.0469 1070.25,192.7734 Q1070.8438,192.5 1071.4688,191.9219 L1071.4688,194.6406 Z "/><text fill="#000000" font-family="sans-serif" font-size="12" lengthAdjust="spacingAndGlyphs" textLength="96" x="1082.5" y="193.1543">DesignPrinciple</text><line style="stroke: #A80036; stroke-width: 1.5;" x1="1054.5" x2="1180.5" y1="205" y2="205"/><line style="stroke: #A80036; stroke-width: 1.5;" x1="1054.5" x2="1180.5" y1="213" y2="213"/><!--MD5=[1f22572e8e1154d754146cb22999abde]
class BestPractice--><rect fill="url(#g38mzb6swq80n1)" filter="url(#f38mzb6swq80n)" height="48" id="BestPractice" style="stroke: #A80036; stroke-width: 1.5;" width="111" x="907" y="173"/><rect fill="url(#g38mzb6swq80n1)" height="32" style="stroke: #A80036; stroke-width: 1.5;" width="111" x="907" y="173"/><ellipse cx="922" cy="189" fill="#ADD1B2" rx="11" ry="11" style="stroke: #A80036; stroke-width: 1.0;"/><path d="M924.9688,194.6406 Q924.3906,194.9375 923.75,195.0859 Q923.1094,195.2344 922.4063,195.2344 Q919.9063,195.2344 918.5859,193.5859 Q917.2656,191.9375 917.2656,188.8125 Q917.2656,185.6875 918.5859,184.0313 Q919.9063,182.375 922.4063,182.375 Q923.1094,182.375 923.7578,182.5313 Q924.4063,182.6875 924.9688,182.9844 L924.9688,185.7031 Q924.3438,185.125 923.75,184.8516 Q923.1563,184.5781 922.5313,184.5781 Q921.1875,184.5781 920.5,185.6484 Q919.8125,186.7188 919.8125,188.8125 Q919.8125,190.9063 920.5,191.9766 Q921.1875,193.0469 922.5313,193.0469 Q923.1563,193.0469 923.75,192.7734 Q924.3438,192.5 924.9688,191.9219 L924.9688,194.6406 Z "/><text fill="#000000" font-family="sans-serif" font-size="12" lengthAdjust="spacingAndGlyphs" textLength="79" x="936" y="193.1543">BestPractice</text><line style="stroke: #A80036; stroke-width: 1.5;" x1="908" x2="1017" y1="205" y2="205"/><line style="stroke: #A80036; stroke-width: 1.5;" x1="908" x2="1017" y1="213" y2="213"/><!--MD5=[1c62ff4ff5b422106e00e417e0f87e2f]
class GoveranceGuide--><rect fill="#FAEBD7" filter="url(#f38mzb6swq80n)" height="48" id="GoveranceGuide" style="stroke: #A80036; stroke-width: 1.5;" width="135" x="1309" y="173"/><rect fill="#FAEBD7" height="32" style="stroke: #A80036; stroke-width: 1.5;" width="135" x="1309" y="173"/><ellipse cx="1324" cy="189" fill="#ADD1B2" rx="11" ry="11" style="stroke: #A80036; stroke-width: 1.0;"/><path d="M1326.9688,194.6406 Q1326.3906,194.9375 1325.75,195.0859 Q1325.1094,195.2344 1324.4063,195.2344 Q1321.9063,195.2344 1320.5859,193.5859 Q1319.2656,191.9375 1319.2656,188.8125 Q1319.2656,185.6875 1320.5859,184.0313 Q1321.9063,182.375 1324.4063,182.375 Q1325.1094,182.375 1325.7578,182.5313 Q1326.4063,182.6875 1326.9688,182.9844 L1326.9688,185.7031 Q1326.3438,185.125 1325.75,184.8516 Q1325.1563,184.5781 1324.5313,184.5781 Q1323.1875,184.5781 1322.5,185.6484 Q1321.8125,186.7188 1321.8125,188.8125 Q1321.8125,190.9063 1322.5,191.9766 Q1323.1875,193.0469 1324.5313,193.0469 Q1325.1563,193.0469 1325.75,192.7734 Q1326.3438,192.5 1326.9688,191.9219 L1326.9688,194.6406 Z "/><text fill="#000000" font-family="sans-serif" font-size="12" lengthAdjust="spacingAndGlyphs" textLength="103" x="1338" y="193.1543">GoveranceGuide</text><line style="stroke: #A80036; stroke-width: 1.5;" x1="1310" x2="1443" y1="205" y2="205"/><line style="stroke: #A80036; stroke-width: 1.5;" x1="1310" x2="1443" y1="213" y2="213"/><!--MD5=[8b0682695c076d9f25fae8f16b94a338]
class ImplementationGuide--><rect fill="#FAEBD7" filter="url(#f38mzb6swq80n)" height="48" id="ImplementationGuide" style="stroke: #A80036; stroke-width: 1.5;" width="165" x="1479" y="173"/><rect fill="#FAEBD7" height="32" style="stroke: #A80036; stroke-width: 1.5;" width="165" x="1479" y="173"/><ellipse cx="1494" cy="189" fill="#ADD1B2" rx="11" ry="11" style="stroke: #A80036; stroke-width: 1.0;"/><path d="M1496.9688,194.6406 Q1496.3906,194.9375 1495.75,195.0859 Q1495.1094,195.2344 1494.4063,195.2344 Q1491.9063,195.2344 1490.5859,193.5859 Q1489.2656,191.9375 1489.2656,188.8125 Q1489.2656,185.6875 1490.5859,184.0313 Q1491.9063,182.375 1494.4063,182.375 Q1495.1094,182.375 1495.7578,182.5313 Q1496.4063,182.6875 1496.9688,182.9844 L1496.9688,185.7031 Q1496.3438,185.125 1495.75,184.8516 Q1495.1563,184.5781 1494.5313,184.5781 Q1493.1875,184.5781 1492.5,185.6484 Q1491.8125,186.7188 1491.8125,188.8125 Q1491.8125,190.9063 1492.5,191.9766 Q1493.1875,193.0469 1494.5313,193.0469 Q1495.1563,193.0469 1495.75,192.7734 Q1496.3438,192.5 1496.9688,191.9219 L1496.9688,194.6406 Z "/><text fill="#000000" font-family="sans-serif" font-size="12" lengthAdjust="spacingAndGlyphs" textLength="133" x="1508" y="193.1543">ImplementationGuide</text><line style="stroke: #A80036; stroke-width: 1.5;" x1="1480" x2="1643" y1="205" y2="205"/><line style="stroke: #A80036; stroke-width: 1.5;" x1="1480" x2="1643" y1="213" y2="213"/><!--MD5=[60a05392b7b711b6eef5665c37a1c4fe]
class WhitePaperReport--><rect fill="#FAEBD7" filter="url(#f38mzb6swq80n)" height="48" id="WhitePaperReport" style="stroke: #A80036; stroke-width: 1.5;" width="146" x="1713.5" y="173"/><rect fill="#FAEBD7" height="32" style="stroke: #A80036; stroke-width: 1.5;" width="146" x="1713.5" y="173"/><ellipse cx="1728.5" cy="189" fill="#ADD1B2" rx="11" ry="11" style="stroke: #A80036; stroke-width: 1.0;"/><path d="M1731.4688,194.6406 Q1730.8906,194.9375 1730.25,195.0859 Q1729.6094,195.2344 1728.9063,195.2344 Q1726.4063,195.2344 1725.0859,193.5859 Q1723.7656,191.9375 1723.7656,188.8125 Q1723.7656,185.6875 1725.0859,184.0313 Q1726.4063,182.375 1728.9063,182.375 Q1729.6094,182.375 1730.2578,182.5313 Q1730.9063,182.6875 1731.4688,182.9844 L1731.4688,185.7031 Q1730.8438,185.125 1730.25,184.8516 Q1729.6563,184.5781 1729.0313,184.5781 Q1727.6875,184.5781 1727,185.6484 Q1726.3125,186.7188 1726.3125,188.8125 Q1726.3125,190.9063 1727,191.9766 Q1727.6875,193.0469 1729.0313,193.0469 Q1729.6563,193.0469 1730.25,192.7734 Q1730.8438,192.5 1731.4688,191.9219 L1731.4688,194.6406 Z "/><text fill="#000000" font-family="sans-serif" font-size="12" lengthAdjust="spacingAndGlyphs" textLength="114" x="1742.5" y="193.1543">WhitePaperReport</text><line style="stroke: #A80036; stroke-width: 1.5;" x1="1714.5" x2="1858.5" y1="205" y2="205"/><line style="stroke: #A80036; stroke-width: 1.5;" x1="1714.5" x2="1858.5" y1="213" y2="213"/><rect fill="#FEFECE" filter="url(#f38mzb6swq80n)" height="33.9688" style="stroke: #A80036; stroke-width: 1.5;" width="131" x="6" y="298"/><text fill="#000000" font-family="sans-serif" font-size="12" lengthAdjust="spacingAndGlyphs" textLength="117" x="13" y="311.1387">Layer1InteropSpec</text><line style="stroke: #A80036; stroke-width: 1.5;" x1="7" x2="136" y1="315.9688" y2="315.9688"/><rect fill="#FEFECE" filter="url(#f38mzb6swq80n)" height="33.9688" style="stroke: #A80036; stroke-width: 1.5;" width="131" x="172" y="298"/><text fill="#000000" font-family="sans-serif" font-size="12" lengthAdjust="spacingAndGlyphs" textLength="117" x="179" y="311.1387">Layer2InteropSpec</text><line style="stroke: #A80036; stroke-width: 1.5;" x1="173" x2="302" y1="315.9688" y2="315.9688"/><rect fill="#FEFECE" filter="url(#f38mzb6swq80n)" height="33.9688" style="stroke: #A80036; stroke-width: 1.5;" width="131" x="338" y="298"/><text fill="#000000" font-family="sans-serif" font-size="12" lengthAdjust="spacingAndGlyphs" textLength="117" x="345" y="311.1387">Layer3InteropSpec</text><line style="stroke: #A80036; stroke-width: 1.5;" x1="339" x2="468" y1="315.9688" y2="315.9688"/><rect fill="#FEFECE" filter="url(#f38mzb6swq80n)" height="33.9688" style="stroke: #A80036; stroke-width: 1.5;" width="136" x="504.5" y="298"/><text fill="#000000" font-family="sans-serif" font-size="12" lengthAdjust="spacingAndGlyphs" textLength="122" x="511.5" y="311.1387">WorkGroupGlossary</text><line style="stroke: #A80036; stroke-width: 1.5;" x1="505.5" x2="639.5" y1="315.9688" y2="315.9688"/><rect fill="#FFA500" filter="url(#f38mzb6swq80n)" height="33.9688" style="stroke: #A80036; stroke-width: 1.5;" width="111" x="676" y="298"/><text fill="#000000" font-family="sans-serif" font-size="12" lengthAdjust="spacingAndGlyphs" textLength="97" x="683" y="311.1387">ProjectGlossary</text><line style="stroke: #A80036; stroke-width: 1.5;" x1="677" x2="786" y1="315.9688" y2="315.9688"/><path d="M578.5,393 L578.5,478.6641 A0,0 0 0 0 578.5,478.6641 L884.5,478.6641 A0,0 0 0 0 884.5,478.6641 L884.5,403 L874.5,393 L735.5,393 L731.5,332.0797 L727.5,393 L578.5,393 A0,0 0 0 0 578.5,393 " fill="#FBFB77" filter="url(#f38mzb6swq80n)" style="stroke: #A80036; stroke-width: 1.0;"/><path d="M874.5,393 L874.5,403 L884.5,403 L874.5,393 " fill="#FBFB77" style="stroke: #A80036; stroke-width: 1.0;"/><text fill="#000000" font-family="sans-serif" font-size="13" lengthAdjust="spacingAndGlyphs" textLength="238" x="584.5" y="410.0669">All Project (ecosystem, utility) activity</text><text fill="#000000" font-family="sans-serif" font-size="13" lengthAdjust="spacingAndGlyphs" textLength="233" x="584.5" y="425.1997">(Glossaries, Goverance Frameworks,</text><text fill="#000000" font-family="sans-serif" font-size="13" lengthAdjust="spacingAndGlyphs" textLength="277" x="592.5" y="440.3325">Project Playbooks, and Project Publications)</text><text fill="#000000" font-family="sans-serif" font-size="13" lengthAdjust="spacingAndGlyphs" textLength="172" x="584.5" y="455.4653">is managed outside of ToIP</text><text fill="#000000" font-family="sans-serif" font-size="13" lengthAdjust="spacingAndGlyphs" textLength="274" x="584.5" y="470.5981">but leverages the Foundation for guidance.</text><rect fill="#FEFECE" filter="url(#f38mzb6swq80n)" height="33.9688" style="stroke: #A80036; stroke-width: 1.5;" width="64" x="822.5" y="298"/><text fill="#000000" font-family="sans-serif" font-size="12" lengthAdjust="spacingAndGlyphs" textLength="50" x="829.5" y="311.1387">SaturnV</text><line style="stroke: #A80036; stroke-width: 1.5;" x1="823.5" x2="885.5" y1="315.9688" y2="315.9688"/><rect fill="#FFA500" filter="url(#f38mzb6swq80n)" height="33.9688" style="stroke: #A80036; stroke-width: 1.5;" width="149" x="1302" y="298"/><text fill="#000000" font-family="sans-serif" font-size="12" lengthAdjust="spacingAndGlyphs" textLength="135" x="1309" y="311.1387">GoveranceFramework</text><line style="stroke: #A80036; stroke-width: 1.5;" x1="1303" x2="1450" y1="315.9688" y2="315.9688"/><rect fill="#FFA500" filter="url(#f38mzb6swq80n)" height="33.9688" style="stroke: #A80036; stroke-width: 1.5;" width="114" x="1504.5" y="298"/><text fill="#000000" font-family="sans-serif" font-size="12" lengthAdjust="spacingAndGlyphs" textLength="100" x="1511.5" y="311.1387">ProjectPlaybook</text><line style="stroke: #A80036; stroke-width: 1.5;" x1="1505.5" x2="1617.5" y1="315.9688" y2="315.9688"/><rect fill="#FEFECE" filter="url(#f38mzb6swq80n)" height="33.9688" style="stroke: #A80036; stroke-width: 1.5;" width="154" x="1686.5" y="298"/><text fill="#000000" font-family="sans-serif" font-size="12" lengthAdjust="spacingAndGlyphs" textLength="140" x="1693.5" y="311.1387">FoundationPublication</text><line style="stroke: #A80036; stroke-width: 1.5;" x1="1687.5" x2="1839.5" y1="315.9688" y2="315.9688"/><rect fill="#FFA500" filter="url(#f38mzb6swq80n)" height="33.9688" style="stroke: #A80036; stroke-width: 1.5;" width="127" x="1876" y="298"/><text fill="#000000" font-family="sans-serif" font-size="12" lengthAdjust="spacingAndGlyphs" textLength="113" x="1883" y="311.1387">ProjectPublication</text><line style="stroke: #A80036; stroke-width: 1.5;" x1="1877" x2="2002" y1="315.9688" y2="315.9688"/><!--MD5=[44d2fb4c5b952d5f3b31f3db1ab8c862]
reverse link ProtocolSpecOutline to ProtocolSpec--><path d="M251.5,111.1596 C251.5,131.8471 251.5,155.6844 251.5,172.982 " fill="none" id="ProtocolSpecOutline&lt;-ProtocolSpec" style="stroke: #000000; stroke-width: 2.0;"/><polygon fill="none" points="244.5001,111.1474,251.5,91.1473,258.5001,111.1473,244.5001,111.1474" style="stroke: #000000; stroke-width: 2.0;"/><text fill="#000000" font-family="sans-serif" font-size="13" lengthAdjust="spacingAndGlyphs" textLength="51" x="252.5" y="134.0669">extends</text><!--MD5=[4bafbacf2a0c21fa933aaf8ecd58e643]
reverse link TechnicalSpecOutline to TechnicalSpec--><path d="M434.8845,110.182 C427.8071,131.0927 419.5762,155.4113 413.6292,172.982 " fill="none" id="TechnicalSpecOutline&lt;-TechnicalSpec" style="stroke: #000000; stroke-width: 2.0;"/><polygon fill="none" points="428.2846,107.8475,441.3271,91.1473,441.5456,112.3359,428.2846,107.8475" style="stroke: #000000; stroke-width: 2.0;"/><text fill="#000000" font-family="sans-serif" font-size="13" lengthAdjust="spacingAndGlyphs" textLength="51" x="431.5" y="134.0669">extends</text><!--MD5=[f3a9e2dac5205dea1ef7ab40238c59d6]
reverse link ProtocolSpec to Layer1InteropSpec--><path d="M197.6817,232.2809 C164.5769,253.983 123.6362,280.8219 97.5406,297.929 " fill="none" id="ProtocolSpec&lt;-Layer1InteropSpec" style="stroke: #000000; stroke-width: 2.0;"/><polygon fill="none" points="194.0759,226.2747,214.64,221.1638,201.7514,237.9831,194.0759,226.2747" style="stroke: #000000; stroke-width: 2.0;"/><text fill="#000000" font-family="sans-serif" font-size="13" lengthAdjust="spacingAndGlyphs" textLength="10" x="168.5" y="264.0669">is</text><!--MD5=[cef842a3c3629e79c3f14193be49704e]
reverse link ProtocolSpec to Layer2InteropSpec--><path d="M246.2609,241.1582 C243.9239,260.8561 241.3068,282.9145 239.5466,297.75 " fill="none" id="ProtocolSpec&lt;-Layer2InteropSpec" style="stroke: #000000; stroke-width: 2.0;"/><polygon fill="none" points="239.3254,240.1998,248.6331,221.1638,253.2279,241.8493,239.3254,240.1998" style="stroke: #000000; stroke-width: 2.0;"/><text fill="#000000" font-family="sans-serif" font-size="13" lengthAdjust="spacingAndGlyphs" textLength="10" x="246.5" y="264.0669">is</text><!--MD5=[a9b94f74d3d7a4ded24f73d2e3be980a]
reverse link ProtocolSpec to Layer3InteropSpec--><path d="M298.4496,233.4477 C326.0338,254.8618 359.6282,280.9417 381.2797,297.75 " fill="none" id="ProtocolSpec&lt;-Layer3InteropSpec" style="stroke: #000000; stroke-width: 2.0;"/><polygon fill="none" points="294.1319,238.9576,282.6263,221.1638,302.7171,227.8989,294.1319,238.9576" style="stroke: #000000; stroke-width: 2.0;"/><text fill="#000000" font-family="sans-serif" font-size="13" lengthAdjust="spacingAndGlyphs" textLength="10" x="342.5" y="264.0669">is</text><!--MD5=[1521bcba7ab7882a3a5d6ba6443d0257]
reverse link GlossayOutline to DomainGlossary--><path d="M629.5,111.1596 C629.5,131.8471 629.5,155.6844 629.5,172.982 " fill="none" id="GlossayOutline&lt;-DomainGlossary" style="stroke: #000000; stroke-width: 2.0;"/><polygon fill="none" points="622.5001,111.1474,629.5,91.1473,636.5001,111.1473,622.5001,111.1474" style="stroke: #000000; stroke-width: 2.0;"/><text fill="#000000" font-family="sans-serif" font-size="13" lengthAdjust="spacingAndGlyphs" textLength="51" x="630.5" y="134.0669">extends</text><!--MD5=[6aaad58782a248466505063e70e1573e]
reverse link DomainGlossary to WorkGroupGlossary--><path d="M609.0767,239.2797 C599.3379,259.4408 588.2277,282.441 580.8326,297.75 " fill="none" id="DomainGlossary&lt;-WorkGroupGlossary" style="stroke: #000000; stroke-width: 2.0;"/><polygon fill="none" points="602.8252,236.128,617.8277,221.1638,615.4315,242.2175,602.8252,236.128" style="stroke: #000000; stroke-width: 2.0;"/><!--MD5=[38b139457c0766c309281e992393cae2]
reverse link DomainGlossary to ProjectGlossary--><path d="M663.6382,236.4932 C681.6152,257.2902 702.7419,281.7308 716.589,297.75 " fill="none" id="DomainGlossary&lt;-ProjectGlossary" style="stroke: #000000; stroke-width: 2.0;"/><polygon fill="none" points="658.1707,240.8722,650.3874,221.1638,668.7622,231.7168,658.1707,240.8722" style="stroke: #000000; stroke-width: 2.0;"/><!--MD5=[3e9fbbd3d7288294b30878fef243fa54]
reverse link TIPOutline to TIP--><path d="M797.0208,108.8864 C808.9229,130.0818 822.9418,155.0471 833.013,172.982 " fill="none" id="TIPOutline&lt;-TIP" style="stroke: #000000; stroke-width: 2.0;"/><polygon fill="none" points="790.7487,112.0134,787.0597,91.1473,802.9557,105.1586,790.7487,112.0134" style="stroke: #000000; stroke-width: 2.0;"/><text fill="#000000" font-family="sans-serif" font-size="13" lengthAdjust="spacingAndGlyphs" textLength="51" x="812.5" y="134.0669">extends</text><!--MD5=[3a838d8fbd1500db1bd124f8d62e418e]
reverse link BestPracticeOutline to BestPractice--><path d="M943.2782,110.8332 C947.9099,131.596 953.2631,155.5933 957.1421,172.982 " fill="none" id="BestPracticeOutline&lt;-BestPractice" style="stroke: #000000; stroke-width: 2.0;"/><polygon fill="none" points="936.4092,112.1916,938.8867,91.1473,950.0734,109.1434,936.4092,112.1916" style="stroke: #000000; stroke-width: 2.0;"/><text fill="#000000" font-family="sans-serif" font-size="13" lengthAdjust="spacingAndGlyphs" textLength="51" x="949.5" y="134.0669">extends</text><!--MD5=[2fc676bdbc27e1822ed7a06a21fcdca5]
reverse link DesignPrincipleOutline to DesignPrinciple--><path d="M1127.4047,111.1596 C1125.0176,131.8471 1122.2672,155.6844 1120.2713,172.982 " fill="none" id="DesignPrincipleOutline&lt;-DesignPrinciple" style="stroke: #000000; stroke-width: 2.0;"/><polygon fill="none" points="1120.4673,110.2131,1129.7138,91.1473,1134.3751,111.8179,1120.4673,110.2131" style="stroke: #000000; stroke-width: 2.0;"/><text fill="#000000" font-family="sans-serif" font-size="13" lengthAdjust="spacingAndGlyphs" textLength="51" x="1126.5" y="134.0669">extends</text><!--MD5=[21d3e56c7260214ac893bdef01660152]
reverse link TIP to SaturnV--><path d="M849.4938,241.1582 C850.8292,260.8561 852.3247,282.9145 853.3305,297.75 " fill="none" id="TIP&lt;-SaturnV" style="stroke: #000000; stroke-width: 2.0;"/><polygon fill="none" points="842.5072,241.5915,848.1382,221.1638,856.4751,240.6445,842.5072,241.5915" style="stroke: #000000; stroke-width: 2.0;"/><text fill="#000000" font-family="sans-serif" font-size="13" lengthAdjust="spacingAndGlyphs" textLength="10" x="851.5" y="264.0669">is</text><!--MD5=[804f22cab7e4c21341aec14b61b3e58e]
reverse link GoveranceGuideOutline to GoveranceGuide--><path d="M1354.6269,110.8332 C1359.8974,131.596 1365.9891,155.5933 1370.4031,172.982 " fill="none" id="GoveranceGuideOutline&lt;-GoveranceGuide" style="stroke: #000000; stroke-width: 2.0;"/><polygon fill="none" points="1347.7658,112.2548,1349.6297,91.1473,1361.3355,108.8102,1347.7658,112.2548" style="stroke: #000000; stroke-width: 2.0;"/><text fill="#000000" font-family="sans-serif" font-size="13" lengthAdjust="spacingAndGlyphs" textLength="51" x="1361.5" y="134.0669">extends</text><!--MD5=[16bea6371a2a2add7c62217a90ce98e1]
reverse link ImplementationGuideOutline to ImplementationGuide--><path d="M1568.7634,111.1596 C1567.0129,131.8471 1564.9959,155.6844 1563.5323,172.982 " fill="none" id="ImplementationGuideOutline&lt;-ImplementationGuide" style="stroke: #000000; stroke-width: 2.0;"/><polygon fill="none" points="1561.7953,110.4859,1570.4568,91.1473,1575.7455,111.6664,1561.7953,110.4859" style="stroke: #000000; stroke-width: 2.0;"/><text fill="#000000" font-family="sans-serif" font-size="13" lengthAdjust="spacingAndGlyphs" textLength="51" x="1568.5" y="134.0669">extends</text><!--MD5=[99ccd66d68a6182475c31c6d08b0998a]
reverse link GoveranceGuide to GoveranceFramework--><path d="M1376.5,241.4727 C1376.5,261.0906 1376.5,282.9934 1376.5,297.75 " fill="none" id="GoveranceGuide&lt;-GoveranceFramework" style="stroke: #000000; stroke-width: 2.0;"/><polygon fill="none" points="1369.5001,241.1638,1376.5,221.1638,1383.5001,241.1638,1369.5001,241.1638" style="stroke: #000000; stroke-width: 2.0;"/><text fill="#000000" font-family="sans-serif" font-size="13" lengthAdjust="spacingAndGlyphs" textLength="10" x="1377.5" y="264.0669">is</text><!--MD5=[33284e7ee1fbfbda85b1fafadf8d65b4]
reverse link ImplementationGuide to ProjectPlaybook--><path d="M1561.5,241.4727 C1561.5,261.0906 1561.5,282.9934 1561.5,297.75 " fill="none" id="ImplementationGuide&lt;-ProjectPlaybook" style="stroke: #000000; stroke-width: 2.0;"/><polygon fill="none" points="1554.5001,241.1638,1561.5,221.1638,1568.5001,241.1638,1554.5001,241.1638" style="stroke: #000000; stroke-width: 2.0;"/><text fill="#000000" font-family="sans-serif" font-size="13" lengthAdjust="spacingAndGlyphs" textLength="10" x="1562.5" y="264.0669">is</text><!--MD5=[fa41e42fe92ec34ade03184faa3aca77]
reverse link WhitePaperOutline to WhitePaperReport--><path d="M1786.5,111.1596 C1786.5,131.8471 1786.5,155.6844 1786.5,172.982 " fill="none" id="WhitePaperOutline&lt;-WhitePaperReport" style="stroke: #000000; stroke-width: 2.0;"/><polygon fill="none" points="1779.5001,111.1474,1786.5,91.1473,1793.5001,111.1473,1779.5001,111.1474" style="stroke: #000000; stroke-width: 2.0;"/><text fill="#000000" font-family="sans-serif" font-size="13" lengthAdjust="spacingAndGlyphs" textLength="51" x="1787.5" y="134.0669">extends</text><!--MD5=[1cf6c2c80401a023ec09dabde6791eeb]
reverse link WhitePaperReport to FoundationPublication--><path d="M1777.9541,240.8441 C1774.0993,260.6212 1769.7693,282.8356 1766.8623,297.75 " fill="none" id="WhitePaperReport&lt;-FoundationPublication" style="stroke: #000000; stroke-width: 2.0;"/><polygon fill="none" points="1771.093,239.4551,1781.7901,221.1638,1784.8344,242.1336,1771.093,239.4551" style="stroke: #000000; stroke-width: 2.0;"/><text fill="#000000" font-family="sans-serif" font-size="13" lengthAdjust="spacingAndGlyphs" textLength="10" x="1776.5" y="264.0669">is</text><!--MD5=[55513b545c91d8e43e26739aca0af9b7]
reverse link WhitePaperReport to ProjectPublication--><path d="M1833.7585,233.4477 C1861.5242,254.8618 1895.3396,280.9417 1917.1335,297.75 " fill="none" id="WhitePaperReport&lt;-ProjectPublication" style="stroke: #000000; stroke-width: 2.0;"/><polygon fill="none" points="1829.3931,238.921,1817.831,221.1638,1837.9431,227.8351,1829.3931,238.921" style="stroke: #000000; stroke-width: 2.0;"/><text fill="#000000" font-family="sans-serif" font-size="13" lengthAdjust="spacingAndGlyphs" textLength="10" x="1877.5" y="264.0669">is</text><!--MD5=[6e939d237aaa68ffa977a18349871abf]
@startuml

package Template #CornflowerBlue {
  class ProtocolSpecOutline #White/Cyan
  class TechnicalSpecOutline #White/Cyan
  class GlossayOutline #White/Cyan
  class TIPOutline #White/Cyan
  class BestPracticeOutline #White/Cyan
  class DesignPrincipleOutline #White/Cyan
  class GoveranceGuideOutline #White/Cyan
  class ImplementationGuideOutline #White/Cyan
  class WhitePaperOutline #White/Cyan
}

package Specification #Gold {
  class ProtocolSpec #AntiqueWhite
  class TechnicalSpec #AntiqueWhite
}

object Layer1InteropSpec
object Layer2InteropSpec
object Layer3InteropSpec

ProtocolSpecOutline  <|- - ProtocolSpec #black;line.bold;text:black : extends
TechnicalSpecOutline  <|- - TechnicalSpec #black;line.bold;text:black : extends
ProtocolSpec <|- - Layer1InteropSpec #black;line.bold;text:black : is
ProtocolSpec <|- - Layer2InteropSpec #black;line.bold;text:black : is
ProtocolSpec <|- - Layer3InteropSpec #black;line.bold;text:black : is

package Glossary #Pink {
  class DomainGlossary #AntiqueWhite
}

object WorkGroupGlossary
object ProjectGlossary #Orange

GlossayOutline  <|- - DomainGlossary #black;line.bold;text:black : extends
DomainGlossary <|- - WorkGroupGlossary #black;line.bold;text:black
DomainGlossary <|- - ProjectGlossary #black;line.bold;text:black

note bottom of ProjectGlossary
  All Project (ecosystem, utility) activity
  (Glossaries, Goverance Frameworks,
    Project Playbooks, and Project Publications)
  is managed outside of ToIP
  but leverages the Foundation for guidance.
end note

package Recomendation #Magenta {
  class TIP #AntiqueWhite|Pink
  class DesignPrinciple #AntiqueWhite|Pink
  class BestPractice #AntiqueWhite|Pink
}

object SaturnV

TIPOutline <|- - TIP #black;line.bold;text:black : extends
BestPracticeOutline <|- - BestPractice #black;line.bold;text:black : extends
DesignPrincipleOutline <|- - DesignPrinciple #black;line.bold;text:black : extends
TIP <|- - SaturnV #black;line.bold;text:black : is

package Guide #GreenYellow {
  class GoveranceGuide #AntiqueWhite
  class ImplementationGuide #AntiqueWhite
}

object GoveranceFramework #Orange
object ProjectPlaybook #Orange

GoveranceGuideOutline  <|- - GoveranceGuide #black;line.bold;text:black : extends
ImplementationGuideOutline  <|- - ImplementationGuide #black;line.bold;text:black : extends
GoveranceGuide <|- - GoveranceFramework #black;line.bold;text:black : is
ImplementationGuide <|- - ProjectPlaybook #black;line.bold;text:black : is

package WhitePaper #Wheat {
  class WhitePaperReport #AntiqueWhite
}

object FoundationPublication
object ProjectPublication #Orange

WhitePaperOutline  <|- - WhitePaperReport #black;line.bold;text:black : extends
WhitePaperReport <|- - FoundationPublication #black;line.bold;text:black : is
WhitePaperReport <|- - ProjectPublication #black;line.bold;text:black : is
@enduml

PlantUML version 1.2019.12(Sun Nov 03 10:24:54 UTC 2019)
(GPL source distribution)
Java Runtime: OpenJDK Runtime Environment
JVM: OpenJDK 64-Bit Server VM
Java Version: 1.8.0_232-heroku-b09
Operating System: Linux
Default Encoding: UTF-8
Language: en
Country: US
--></g></svg>